<?xml version="1.0" encoding="UTF-8"?>
<svg width="122px" height="126px" viewBox="0 0 122 126" version="1.1" xmlns="http://www.w3.org/2000/svg" xmlns:xlink="http://www.w3.org/1999/xlink">
    <!-- Generator: Sketch 47.1 (45422) - http://www.bohemiancoding.com/sketch -->
    <title>tomibari-ui</title>
    <desc>Created with Sketch.</desc>
    <defs></defs>
    <g id="Page-2" stroke="none" stroke-width="1" fill="none" fill-rule="evenodd">
        <path d="M76.7984661,2.13509396 L60.6195818,62.5155121 L44.4433915,2.14514796 C55.4415404,-0.801797143 66.5408196,-0.623713662 76.7984661,2.13509396 L76.7984661,2.13509396 Z M121,46.3366278 L60.6195818,62.5155121 L104.813756,18.3213383 C112.864959,26.372542 118.260374,36.0738415 121,46.3366278 L121,46.3366278 Z M104.821116,106.717046 L60.6195818,62.5155121 L120.989946,78.6917024 C118.043001,89.6898513 112.339136,99.2130673 104.821116,106.717046 L104.821116,106.717046 Z M44.4406976,122.89593 L60.6195818,62.5155121 L76.7957722,122.885876 C65.7976233,125.832821 54.6983441,125.654738 44.4406976,122.89593 L44.4406976,122.89593 Z M0.239163697,78.6943964 L60.6195818,62.5155121 L16.425408,106.709686 C8.37420427,98.6584822 2.97878949,88.9571827 0.239163697,78.6943964 L0.239163697,78.6943964 Z M16.418048,18.3139782 L60.6195818,62.5155121 L0.249217705,46.3393218 C3.19616281,35.3411729 8.90002722,25.8179569 16.418048,18.3139782 L16.418048,18.3139782 Z" id="Combined-Shape" fill="#FFFFFF"></path>
    </g>
</svg>