<?xml version="1.0" encoding="UTF-8"?>
<svg width="181px" height="180px" viewBox="0 0 181 180" version="1.1" xmlns="http://www.w3.org/2000/svg" xmlns:xlink="http://www.w3.org/1999/xlink">
    <!-- Generator: Sketch 47.1 (45422) - http://www.bohemiancoding.com/sketch -->
    <title>Group 3</title>
    <desc>Created with Sketch.</desc>
    <defs></defs>
    <g id="Page-2" stroke="none" stroke-width="1" fill="none" fill-rule="evenodd">
        <g id="Group-3" transform="translate(-10.000000, 1.000000)" stroke="#000000" stroke-width="2">
            <path d="M109.380144,18.3696333 C119.013452,19.5712552 128.049541,22.6965403 136.092117,27.3490756 L145,11.9154784 C131.90117,4.33721362 116.693809,0 100.473744,0 C84.2753502,0 69.0869544,4.32563237 56,11.8851222 L64.9078865,27.3187261 C72.937275,22.6829484 81.9549983,19.5686405 91.5673452,18.3696333 L91.5673452,73.5083051 L100.50876,89 L109.380144,73.629641 L109.380144,18.3696333 Z" id="Path" fill="#F43276"></path>
            <path d="M148.380144,40.3696333 C158.013452,41.5712552 167.049541,44.6965403 175.092117,49.3490756 L184,33.9154784 C170.90117,26.3372136 155.693809,22 139.473744,22 C123.27535,22 108.086954,26.3256324 95,33.8851222 L103.907886,49.3187261 C111.937275,44.6829484 120.954998,41.5686405 130.567345,40.3696333 L130.567345,95.5083051 L139.50876,111 L148.380144,95.629641 L148.380144,40.3696333 Z" id="Path" fill="#FFE500" transform="translate(139.500000, 66.500000) rotate(60.000000) translate(-139.500000, -66.500000) "></path>
            <path d="M148.380144,85.3696333 C158.013452,86.5712552 167.049541,89.6965403 175.092117,94.3490756 L184,78.9154784 C170.90117,71.3372136 155.693809,67 139.473744,67 C123.27535,67 108.086954,71.3256324 95,78.8851222 L103.907886,94.3187261 C111.937275,89.6829484 120.954998,86.5686405 130.567345,85.3696333 L130.567345,140.508305 L139.50876,156 L148.380144,140.629641 L148.380144,85.3696333 Z" id="Path" fill="#76F432" transform="translate(139.500000, 111.500000) rotate(120.000000) translate(-139.500000, -111.500000) "></path>
            <path d="M109.380144,107.369633 C119.013452,108.571255 128.049541,111.69654 136.092117,116.349076 L145,100.915478 C131.90117,93.3372136 116.693809,89 100.473744,89 C84.2753502,89 69.0869544,93.3256324 56,100.885122 L64.9078865,116.318726 C72.937275,111.682948 81.9549983,108.56864 91.5673452,107.369633 L91.5673452,162.508305 L100.50876,178 L109.380144,162.629641 L109.380144,107.369633 Z" id="Path" fill="#F43276" transform="translate(100.500000, 133.500000) rotate(180.000000) translate(-100.500000, -133.500000) "></path>
            <path d="M70.3801436,85.3696333 C80.0134521,86.5712552 89.0495409,89.6965403 97.0921174,94.3490756 L106,78.9154784 C92.9011701,71.3372136 77.6938086,67 61.4737444,67 C45.2753502,67 30.0869544,71.3256324 17,78.8851222 L25.9078865,94.3187261 C33.937275,89.6829484 42.9549983,86.5686405 52.5673452,85.3696333 L52.5673452,140.508305 L61.5087604,156 L70.3801436,140.629641 L70.3801436,85.3696333 Z" id="Path" fill="#FFE500" transform="translate(61.500000, 111.500000) rotate(240.000000) translate(-61.500000, -111.500000) "></path>
            <path d="M70.3801436,40.3696333 C80.0134521,41.5712552 89.0495409,44.6965403 97.0921174,49.3490756 L106,33.9154784 C92.9011701,26.3372136 77.6938086,22 61.4737444,22 C45.2753502,22 30.0869544,26.3256324 17,33.8851222 L25.9078865,49.3187261 C33.937275,44.6829484 42.9549983,41.5686405 52.5673452,40.3696333 L52.5673452,95.5083051 L61.5087604,111 L70.3801436,95.629641 L70.3801436,40.3696333 Z" id="Path" fill="#76F432" transform="translate(61.500000, 66.500000) rotate(300.000000) translate(-61.500000, -66.500000) "></path>
        </g>
    </g>
</svg>